<svg id="visual" viewBox="0 0 1200 100" width="1200" height="100" xmlns="http://www.w3.org/2000/svg" xmlns:xlink="http://www.w3.org/1999/xlink" version="1.1"><path d="M0 73L12.5 72.3C25 71.7 50 70.3 75 68.2C100 66 125 63 150 62.8C175 62.7 200 65.3 225 68.2C250 71 275 74 300 73.3C325 72.7 350 68.3 375 68.2C400 68 425 72 450 72.2C475 72.3 500 68.7 525 67.7C550 66.7 575 68.3 600 69.8C625 71.3 650 72.7 675 72.3C700 72 725 70 750 70.3C775 70.7 800 73.3 825 72.2C850 71 875 66 900 65.8C925 65.7 950 70.3 975 71C1000 71.7 1025 68.3 1050 67.7C1075 67 1100 69 1125 69.5C1150 70 1175 69 1187.5 68.5L1200 68L1200 0L1187.5 0C1175 0 1150 0 1125 0C1100 0 1075 0 1050 0C1025 0 1000 0 975 0C950 0 925 0 900 0C875 0 850 0 825 0C800 0 775 0 750 0C725 0 700 0 675 0C650 0 625 0 600 0C575 0 550 0 525 0C500 0 475 0 450 0C425 0 400 0 375 0C350 0 325 0 300 0C275 0 250 0 225 0C200 0 175 0 150 0C125 0 100 0 75 0C50 0 25 0 12.5 0L0 0Z" fill="#d5f4aa"></path><path d="M0 58L12.5 57.5C25 57 50 56 75 54.8C100 53.7 125 52.3 150 52.8C175 53.3 200 55.7 225 56.5C250 57.3 275 56.7 300 55.2C325 53.7 350 51.3 375 51.2C400 51 425 53 450 55C475 57 500 59 525 59.7C550 60.3 575 59.7 600 58.7C625 57.7 650 56.3 675 57C700 57.7 725 60.3 750 61.2C775 62 800 61 825 59.7C850 58.3 875 56.7 900 55C925 53.3 950 51.7 975 53C1000 54.3 1025 58.7 1050 59.8C1075 61 1100 59 1125 58.7C1150 58.3 1175 59.7 1187.5 60.3L1200 61L1200 0L1187.5 0C1175 0 1150 0 1125 0C1100 0 1075 0 1050 0C1025 0 1000 0 975 0C950 0 925 0 900 0C875 0 850 0 825 0C800 0 775 0 750 0C725 0 700 0 675 0C650 0 625 0 600 0C575 0 550 0 525 0C500 0 475 0 450 0C425 0 400 0 375 0C350 0 325 0 300 0C275 0 250 0 225 0C200 0 175 0 150 0C125 0 100 0 75 0C50 0 25 0 12.5 0L0 0Z" fill="#82e7bc"></path><path d="M0 38L12.5 37.7C25 37.3 50 36.7 75 37C100 37.3 125 38.7 150 39C175 39.3 200 38.7 225 39C250 39.3 275 40.7 300 41.3C325 42 350 42 375 42.2C400 42.3 425 42.7 450 42C475 41.3 500 39.7 525 39.8C550 40 575 42 600 42.5C625 43 650 42 675 42.5C700 43 725 45 750 45.3C775 45.7 800 44.3 825 44.5C850 44.7 875 46.3 900 45.3C925 44.3 950 40.7 975 38.8C1000 37 1025 37 1050 38.7C1075 40.3 1100 43.7 1125 43.7C1150 43.7 1175 40.3 1187.5 38.7L1200 37L1200 0L1187.5 0C1175 0 1150 0 1125 0C1100 0 1075 0 1050 0C1025 0 1000 0 975 0C950 0 925 0 900 0C875 0 850 0 825 0C800 0 775 0 750 0C725 0 700 0 675 0C650 0 625 0 600 0C575 0 550 0 525 0C500 0 475 0 450 0C425 0 400 0 375 0C350 0 325 0 300 0C275 0 250 0 225 0C200 0 175 0 150 0C125 0 100 0 75 0C50 0 25 0 12.5 0L0 0Z" fill="#00d2da"></path><path d="M0 24L12.5 24.2C25 24.3 50 24.7 75 25.7C100 26.7 125 28.3 150 30C175 31.7 200 33.3 225 32.8C250 32.3 275 29.7 300 28.5C325 27.3 350 27.7 375 29C400 30.3 425 32.7 450 32C475 31.3 500 27.7 525 27.2C550 26.7 575 29.3 600 31.2C625 33 650 34 675 33.8C700 33.7 725 32.3 750 31.3C775 30.3 800 29.7 825 28.5C850 27.3 875 25.7 900 26.5C925 27.3 950 30.7 975 32.2C1000 33.7 1025 33.3 1050 33.2C1075 33 1100 33 1125 32.5C1150 32 1175 31 1187.5 30.5L1200 30L1200 0L1187.5 0C1175 0 1150 0 1125 0C1100 0 1075 0 1050 0C1025 0 1000 0 975 0C950 0 925 0 900 0C875 0 850 0 825 0C800 0 775 0 750 0C725 0 700 0 675 0C650 0 625 0 600 0C575 0 550 0 525 0C500 0 475 0 450 0C425 0 400 0 375 0C350 0 325 0 300 0C275 0 250 0 225 0C200 0 175 0 150 0C125 0 100 0 75 0C50 0 25 0 12.5 0L0 0Z" fill="#00b6f3"></path><path d="M0 19L12.5 18.2C25 17.3 50 15.7 75 15.5C100 15.3 125 16.7 150 17.5C175 18.3 200 18.7 225 18.3C250 18 275 17 300 17C325 17 350 18 375 17.3C400 16.7 425 14.3 450 14.2C475 14 500 16 525 17.2C550 18.3 575 18.7 600 18.3C625 18 650 17 675 17.2C700 17.3 725 18.7 750 17.8C775 17 800 14 825 14C850 14 875 17 900 18.2C925 19.3 950 18.7 975 18.5C1000 18.3 1025 18.7 1050 18.3C1075 18 1100 17 1125 17.2C1150 17.3 1175 18.7 1187.5 19.3L1200 20L1200 0L1187.5 0C1175 0 1150 0 1125 0C1100 0 1075 0 1050 0C1025 0 1000 0 975 0C950 0 925 0 900 0C875 0 850 0 825 0C800 0 775 0 750 0C725 0 700 0 675 0C650 0 625 0 600 0C575 0 550 0 525 0C500 0 475 0 450 0C425 0 400 0 375 0C350 0 325 0 300 0C275 0 250 0 225 0C200 0 175 0 150 0C125 0 100 0 75 0C50 0 25 0 12.5 0L0 0Z" fill="#3591f4"></path></svg>