<?xml version="1.0" encoding="UTF-8"?>
<svg xmlns="http://www.w3.org/2000/svg" xmlns:xlink="http://www.w3.org/1999/xlink" width="1200px" height="50px" viewBox="0 0 1200 50" version="1.1">
<g id="surface1">
<path style=" stroke:none;fill-rule:nonzero;fill:rgb(50.588238%,73.333335%,60.000002%);fill-opacity:1;" d="M 0 35 L 12.5 34.648438 C 25 34.351562 50 33.648438 75 33 C 100 32.351562 125 31.648438 150 31.898438 C 175 32.148438 200 33.351562 225 33.351562 C 250 33.351562 275 32.148438 300 32.398438 C 325 32.648438 350 34.351562 375 34.351562 C 400 34.351562 425 32.648438 450 32.148438 C 475 31.648438 500 32.351562 525 33.351562 C 550 34.351562 575 35.648438 600 35.898438 C 625 36.148438 650 35.351562 675 34.648438 C 700 34 725 33.5 750 33 C 775 32.5 800 32 825 31.851562 C 850 31.648438 875 31.851562 900 31.898438 C 925 32 950 32 975 32.148438 C 1000 32.351562 1025 32.648438 1050 33.648438 C 1075 34.648438 1100 36.351562 1125 37.351562 C 1150 38.351562 1175 38.648438 1187.5 38.851562 L 1200 39 L 1200 0 L 1187.5 0 C 1175 0 1150 0 1125 0 C 1100 0 1075 0 1050 0 C 1025 0 1000 0 975 0 C 950 0 925 0 900 0 C 875 0 850 0 825 0 C 800 0 775 0 750 0 C 725 0 700 0 675 0 C 650 0 625 0 600 0 C 575 0 550 0 525 0 C 500 0 475 0 450 0 C 425 0 400 0 375 0 C 350 0 325 0 300 0 C 275 0 250 0 225 0 C 200 0 175 0 150 0 C 125 0 100 0 75 0 C 50 0 25 0 12.5 0 L 0 0 Z M 0 35 "/>
<path style=" stroke:none;fill-rule:nonzero;fill:rgb(30.19608%,69.01961%,66.666669%);fill-opacity:1;" d="M 0 27.5 L 12.5 27.851562 C 25 28.148438 50 28.851562 75 28.5 C 100 28.148438 125 26.851562 150 25.898438 C 175 25 200 24.5 225 25.101562 C 250 25.648438 275 27.351562 300 27.648438 C 325 28 350 27 375 26.601562 C 400 26.148438 425 26.351562 450 26.5 C 475 26.648438 500 26.851562 525 27.351562 C 550 27.851562 575 28.648438 600 28.398438 C 625 28.148438 650 26.851562 675 26.148438 C 700 25.5 725 25.5 750 25.601562 C 775 25.648438 800 25.851562 825 26.25 C 850 26.648438 875 27.351562 900 28.351562 C 925 29.351562 950 30.648438 975 30.75 C 1000 30.851562 1025 29.648438 1050 29.25 C 1075 28.851562 1100 29.148438 1125 28.398438 C 1150 27.648438 1175 25.851562 1187.5 24.898438 L 1200 24 L 1200 0 L 1187.5 0 C 1175 0 1150 0 1125 0 C 1100 0 1075 0 1050 0 C 1025 0 1000 0 975 0 C 950 0 925 0 900 0 C 875 0 850 0 825 0 C 800 0 775 0 750 0 C 725 0 700 0 675 0 C 650 0 625 0 600 0 C 575 0 550 0 525 0 C 500 0 475 0 450 0 C 425 0 400 0 375 0 C 350 0 325 0 300 0 C 275 0 250 0 225 0 C 200 0 175 0 150 0 C 125 0 100 0 75 0 C 50 0 25 0 12.5 0 L 0 0 Z M 0 27.5 "/>
<path style=" stroke:none;fill-rule:nonzero;fill:rgb(13.725491%,62.7451%,73.333335%);fill-opacity:1;" d="M 0 22 L 12.5 21.601562 C 25 21.148438 50 20.351562 75 19.898438 C 100 19.5 125 19.5 150 19.5 C 175 19.5 200 19.5 225 20.101562 C 250 20.648438 275 21.851562 300 21.75 C 325 21.648438 350 20.351562 375 20 C 400 19.648438 425 20.351562 450 20.648438 C 475 21 500 21 525 20.75 C 550 20.5 575 20 600 20 C 625 20 650 20.5 675 20.851562 C 700 21.148438 725 21.351562 750 20.75 C 775 20.148438 800 18.851562 825 19.101562 C 850 19.351562 875 21.148438 900 21.398438 C 925 21.648438 950 20.351562 975 20.5 C 1000 20.648438 1025 22.351562 1050 22.398438 C 1075 22.5 1100 21 1125 20.398438 C 1150 19.851562 1175 20.148438 1187.5 20.351562 L 1200 20.5 L 1200 0 L 1187.5 0 C 1175 0 1150 0 1125 0 C 1100 0 1075 0 1050 0 C 1025 0 1000 0 975 0 C 950 0 925 0 900 0 C 875 0 850 0 825 0 C 800 0 775 0 750 0 C 725 0 700 0 675 0 C 650 0 625 0 600 0 C 575 0 550 0 525 0 C 500 0 475 0 450 0 C 425 0 400 0 375 0 C 350 0 325 0 300 0 C 275 0 250 0 225 0 C 200 0 175 0 150 0 C 125 0 100 0 75 0 C 50 0 25 0 12.5 0 L 0 0 Z M 0 22 "/>
<path style=" stroke:none;fill-rule:nonzero;fill:rgb(25.098041%,54.901963%,75.686276%);fill-opacity:1;" d="M 0 13.5 L 12.5 13.851562 C 25 14.148438 50 14.851562 75 14.851562 C 100 14.851562 125 14.148438 150 13.5 C 175 12.851562 200 12.148438 225 12.101562 C 250 12 275 12.5 300 12.5 C 325 12.5 350 12 375 12.5 C 400 13 425 14.5 450 14.601562 C 475 14.648438 500 13.351562 525 12.851562 C 550 12.351562 575 12.648438 600 13.148438 C 625 13.648438 650 14.351562 675 15.101562 C 700 15.851562 725 16.648438 750 16.648438 C 775 16.648438 800 15.851562 825 15.601562 C 850 15.351562 875 15.648438 900 16 C 925 16.351562 950 16.648438 975 16.25 C 1000 15.851562 1025 14.648438 1050 14.5 C 1075 14.351562 1100 15.148438 1125 15.75 C 1150 16.351562 1175 16.648438 1187.5 16.851562 L 1200 17 L 1200 0 L 1187.5 0 C 1175 0 1150 0 1125 0 C 1100 0 1075 0 1050 0 C 1025 0 1000 0 975 0 C 950 0 925 0 900 0 C 875 0 850 0 825 0 C 800 0 775 0 750 0 C 725 0 700 0 675 0 C 650 0 625 0 600 0 C 575 0 550 0 525 0 C 500 0 475 0 450 0 C 425 0 400 0 375 0 C 350 0 325 0 300 0 C 275 0 250 0 225 0 C 200 0 175 0 150 0 C 125 0 100 0 75 0 C 50 0 25 0 12.5 0 L 0 0 Z M 0 13.5 "/>
<path style=" stroke:none;fill-rule:nonzero;fill:rgb(43.921569%,45.09804%,70.19608%);fill-opacity:1;" d="M 0 6.5 L 12.5 6.648438 C 25 6.851562 50 7.148438 75 7.75 C 100 8.351562 125 9.148438 150 9.398438 C 175 9.648438 200 9.351562 225 9.148438 C 250 9 275 9 300 9.101562 C 325 9.148438 350 9.351562 375 9.5 C 400 9.648438 425 9.851562 450 9.25 C 475 8.648438 500 7.351562 525 6.75 C 550 6.148438 575 6.351562 600 6.5 C 625 6.648438 650 6.851562 675 7.101562 C 700 7.351562 725 7.648438 750 7.898438 C 775 8.148438 800 8.351562 825 8.398438 C 850 8.5 875 8.5 900 8 C 925 7.5 950 6.5 975 6.75 C 1000 7 1025 8.5 1050 9.25 C 1075 10 1100 10 1125 9.351562 C 1150 8.648438 1175 7.351562 1187.5 6.648438 L 1200 6 L 1200 0 L 1187.5 0 C 1175 0 1150 0 1125 0 C 1100 0 1075 0 1050 0 C 1025 0 1000 0 975 0 C 950 0 925 0 900 0 C 875 0 850 0 825 0 C 800 0 775 0 750 0 C 725 0 700 0 675 0 C 650 0 625 0 600 0 C 575 0 550 0 525 0 C 500 0 475 0 450 0 C 425 0 400 0 375 0 C 350 0 325 0 300 0 C 275 0 250 0 225 0 C 200 0 175 0 150 0 C 125 0 100 0 75 0 C 50 0 25 0 12.5 0 L 0 0 Z M 0 6.5 "/>
</g>
</svg>
