<?xml version="1.0" encoding="UTF-8"?>
<svg xmlns="http://www.w3.org/2000/svg" xmlns:xlink="http://www.w3.org/1999/xlink" width="1200px" height="50px" viewBox="0 0 1200 50" version="1.1">
<g id="surface1">
<path style="fill-rule:nonzero;fill:rgb(81.960785%,46.666667%,50.588238%);fill-opacity:1;stroke-width:1;stroke-linecap:butt;stroke-linejoin:bevel;stroke:rgb(81.960785%,46.666667%,50.588238%);stroke-opacity:1;stroke-miterlimit:4;" d="M 583 0 L 650 66 L 640 0 Z M 583 0 " transform="matrix(1,0,0,0.5,0,0)"/>
<path style="fill-rule:nonzero;fill:rgb(56.862748%,41.568628%,50.196081%);fill-opacity:1;stroke-width:1;stroke-linecap:butt;stroke-linejoin:bevel;stroke:rgb(56.862748%,41.568628%,50.196081%);stroke-opacity:1;stroke-miterlimit:4;" d="M 583 0 L 610 100 L 650 66 Z M 583 0 " transform="matrix(1,0,0,0.5,0,0)"/>
<path style="fill-rule:nonzero;fill:rgb(69.803923%,43.921569%,52.156866%);fill-opacity:1;stroke-width:1;stroke-linecap:butt;stroke-linejoin:bevel;stroke:rgb(69.803923%,43.921569%,52.156866%);stroke-opacity:1;stroke-miterlimit:4;" d="M 583 0 L 563 100 L 610 100 Z M 583 0 " transform="matrix(1,0,0,0.5,0,0)"/>
<path style="fill-rule:nonzero;fill:rgb(96.862745%,53.333336%,43.137255%);fill-opacity:1;stroke-width:1;stroke-linecap:butt;stroke-linejoin:bevel;stroke:rgb(96.862745%,53.333336%,43.137255%);stroke-opacity:1;stroke-miterlimit:4;" d="M 650 66 L 685 0 L 640 0 Z M 650 66 " transform="matrix(1,0,0,0.5,0,0)"/>
<path style="fill-rule:nonzero;fill:rgb(100%,56.470591%,39.607844%);fill-opacity:1;stroke-width:1;stroke-linecap:butt;stroke-linejoin:bevel;stroke:rgb(100%,56.470591%,39.607844%);stroke-opacity:1;stroke-miterlimit:4;" d="M 583 0 L 519 40 L 563 100 Z M 583 0 " transform="matrix(1,0,0,0.5,0,0)"/>
<path style="fill-rule:nonzero;fill:rgb(92.54902%,50.588238%,46.27451%);fill-opacity:1;stroke-width:1;stroke-linecap:butt;stroke-linejoin:bevel;stroke:rgb(92.54902%,50.588238%,46.27451%);stroke-opacity:1;stroke-miterlimit:4;" d="M 650 66 L 706 0 L 685 0 Z M 650 66 " transform="matrix(1,0,0,0.5,0,0)"/>
<path style="fill-rule:nonzero;fill:rgb(56.862748%,41.568628%,50.196081%);fill-opacity:1;stroke-width:1;stroke-linecap:butt;stroke-linejoin:bevel;stroke:rgb(56.862748%,41.568628%,50.196081%);stroke-opacity:1;stroke-miterlimit:4;" d="M 583 0 L 500 14 L 519 40 Z M 583 0 " transform="matrix(1,0,0,0.5,0,0)"/>
<path style="fill-rule:nonzero;fill:rgb(100%,56.470591%,39.607844%);fill-opacity:1;stroke-width:1;stroke-linecap:butt;stroke-linejoin:bevel;stroke:rgb(100%,56.470591%,39.607844%);stroke-opacity:1;stroke-miterlimit:4;" d="M 610 100 L 709 100 L 650 66 Z M 610 100 " transform="matrix(1,0,0,0.5,0,0)"/>
<path style="fill-rule:nonzero;fill:rgb(45.09804%,38.82353%,44.705883%);fill-opacity:1;stroke-width:1;stroke-linecap:butt;stroke-linejoin:bevel;stroke:rgb(45.09804%,38.82353%,44.705883%);stroke-opacity:1;stroke-miterlimit:4;" d="M 650 66 L 745 41 L 706 0 Z M 650 66 " transform="matrix(1,0,0,0.5,0,0)"/>
<path style="fill-rule:nonzero;fill:rgb(87.843138%,48.235294%,49.019608%);fill-opacity:1;stroke-width:1;stroke-linecap:butt;stroke-linejoin:bevel;stroke:rgb(87.843138%,48.235294%,49.019608%);stroke-opacity:1;stroke-miterlimit:4;" d="M 745 41 L 722 -10 L 706 0 Z M 745 41 " transform="matrix(1,0,0,0.5,0,0)"/>
<path style="fill:none;stroke-width:1;stroke-linecap:butt;stroke-linejoin:bevel;stroke:rgb(69.803923%,43.921569%,52.156866%);stroke-opacity:1;stroke-miterlimit:4;" d="M 706 0 L 722 -10 L 685 0 Z M 706 0 " transform="matrix(1,0,0,0.5,0,0)"/>
<path style="fill:none;stroke-width:1;stroke-linecap:butt;stroke-linejoin:bevel;stroke:rgb(87.843138%,48.235294%,49.019608%);stroke-opacity:1;stroke-miterlimit:4;" d="M 685 0 L 722 -10 L 640 0 Z M 685 0 " transform="matrix(1,0,0,0.5,0,0)"/>
<path style="fill:none;stroke-width:1;stroke-linecap:butt;stroke-linejoin:bevel;stroke:rgb(87.843138%,48.235294%,49.019608%);stroke-opacity:1;stroke-miterlimit:4;" d="M 640 0 L 722 -10 L 583 0 Z M 640 0 " transform="matrix(1,0,0,0.5,0,0)"/>
<path style="fill-rule:nonzero;fill:rgb(56.862748%,41.568628%,50.196081%);fill-opacity:1;stroke-width:1;stroke-linecap:butt;stroke-linejoin:bevel;stroke:rgb(56.862748%,41.568628%,50.196081%);stroke-opacity:1;stroke-miterlimit:4;" d="M 500 14 L 494 100 L 519 40 Z M 500 14 " transform="matrix(1,0,0,0.5,0,0)"/>
<path style="fill-rule:nonzero;fill:rgb(100%,56.470591%,39.607844%);fill-opacity:1;stroke-width:1;stroke-linecap:butt;stroke-linejoin:bevel;stroke:rgb(100%,56.470591%,39.607844%);stroke-opacity:1;stroke-miterlimit:4;" d="M 519 40 L 494 100 L 563 100 Z M 519 40 " transform="matrix(1,0,0,0.5,0,0)"/>
<path style="fill-rule:nonzero;fill:rgb(50.588238%,40.392157%,47.843137%);fill-opacity:1;stroke-width:1;stroke-linecap:butt;stroke-linejoin:bevel;stroke:rgb(50.588238%,40.392157%,47.843137%);stroke-opacity:1;stroke-miterlimit:4;" d="M 709 100 L 745 41 L 650 66 Z M 709 100 " transform="matrix(1,0,0,0.5,0,0)"/>
<path style="fill-rule:nonzero;fill:rgb(87.843138%,48.235294%,49.019608%);fill-opacity:1;stroke-width:1;stroke-linecap:butt;stroke-linejoin:bevel;stroke:rgb(87.843138%,48.235294%,49.019608%);stroke-opacity:1;stroke-miterlimit:4;" d="M 583 0 L 470 0 L 500 14 Z M 583 0 " transform="matrix(1,0,0,0.5,0,0)"/>
<path style="fill-rule:nonzero;fill:rgb(45.09804%,38.82353%,44.705883%);fill-opacity:1;stroke-width:1;stroke-linecap:butt;stroke-linejoin:bevel;stroke:rgb(45.09804%,38.82353%,44.705883%);stroke-opacity:1;stroke-miterlimit:4;" d="M 500 14 L 432 100 L 494 100 Z M 500 14 " transform="matrix(1,0,0,0.5,0,0)"/>
<path style="fill:none;stroke-width:1;stroke-linecap:butt;stroke-linejoin:bevel;stroke:rgb(87.843138%,48.235294%,49.019608%);stroke-opacity:1;stroke-miterlimit:4;" d="M 722 -10 L 470 0 L 583 0 Z M 722 -10 " transform="matrix(1,0,0,0.5,0,0)"/>
<path style="fill:none;stroke-width:1;stroke-linecap:butt;stroke-linejoin:bevel;stroke:rgb(45.09804%,38.82353%,44.705883%);stroke-opacity:1;stroke-miterlimit:4;" d="M 414 -1 L 453 0 L 470 0 Z M 414 -1 " transform="matrix(1,0,0,0.5,0,0)"/>
<path style="fill-rule:nonzero;fill:rgb(100%,56.470591%,39.607844%);fill-opacity:1;stroke-width:1;stroke-linecap:butt;stroke-linejoin:bevel;stroke:rgb(100%,56.470591%,39.607844%);stroke-opacity:1;stroke-miterlimit:4;" d="M 470 0 L 432 100 L 500 14 Z M 470 0 " transform="matrix(1,0,0,0.5,0,0)"/>
<path style="fill-rule:nonzero;fill:rgb(69.803923%,43.921569%,52.156866%);fill-opacity:1;stroke-width:1;stroke-linecap:butt;stroke-linejoin:bevel;stroke:rgb(69.803923%,43.921569%,52.156866%);stroke-opacity:1;stroke-miterlimit:4;" d="M 453 0 L 432 100 L 470 0 Z M 453 0 " transform="matrix(1,0,0,0.5,0,0)"/>
<path style="fill-rule:nonzero;fill:rgb(92.54902%,50.588238%,46.27451%);fill-opacity:1;stroke-width:1;stroke-linecap:butt;stroke-linejoin:bevel;stroke:rgb(92.54902%,50.588238%,46.27451%);stroke-opacity:1;stroke-miterlimit:4;" d="M 444 1 L 432 100 L 453 0 Z M 444 1 " transform="matrix(1,0,0,0.5,0,0)"/>
<path style="fill-rule:nonzero;fill:rgb(96.862745%,53.333336%,43.137255%);fill-opacity:1;stroke-width:1;stroke-linecap:butt;stroke-linejoin:bevel;stroke:rgb(96.862745%,53.333336%,43.137255%);stroke-opacity:1;stroke-miterlimit:4;" d="M 709 100 L 793 100 L 745 41 Z M 709 100 " transform="matrix(1,0,0,0.5,0,0)"/>
<path style="fill-rule:nonzero;fill:rgb(50.588238%,40.392157%,47.843137%);fill-opacity:1;stroke-width:1;stroke-linecap:butt;stroke-linejoin:bevel;stroke:rgb(50.588238%,40.392157%,47.843137%);stroke-opacity:1;stroke-miterlimit:4;" d="M 745 41 L 803 0 L 722 -10 Z M 745 41 " transform="matrix(1,0,0,0.5,0,0)"/>
<path style="fill-rule:nonzero;fill:rgb(81.960785%,46.666667%,50.588238%);fill-opacity:1;stroke-width:1;stroke-linecap:butt;stroke-linejoin:bevel;stroke:rgb(81.960785%,46.666667%,50.588238%);stroke-opacity:1;stroke-miterlimit:4;" d="M 793 100 L 803 0 L 745 41 Z M 793 100 " transform="matrix(1,0,0,0.5,0,0)"/>
<path style="fill-rule:nonzero;fill:rgb(92.54902%,50.588238%,46.27451%);fill-opacity:1;stroke-width:1;stroke-linecap:butt;stroke-linejoin:bevel;stroke:rgb(92.54902%,50.588238%,46.27451%);stroke-opacity:1;stroke-miterlimit:4;" d="M 453 0 L 414 -1 L 444 1 Z M 453 0 " transform="matrix(1,0,0,0.5,0,0)"/>
<path style="fill-rule:nonzero;fill:rgb(69.803923%,43.921569%,52.156866%);fill-opacity:1;stroke-width:1;stroke-linecap:butt;stroke-linejoin:bevel;stroke:rgb(69.803923%,43.921569%,52.156866%);stroke-opacity:1;stroke-miterlimit:4;" d="M 444 1 L 414 -1 L 432 100 Z M 444 1 " transform="matrix(1,0,0,0.5,0,0)"/>
<path style="fill:none;stroke-width:1;stroke-linecap:butt;stroke-linejoin:bevel;stroke:rgb(56.862748%,41.568628%,50.196081%);stroke-opacity:1;stroke-miterlimit:4;" d="M 722 -10 L 414 -1 L 470 0 Z M 722 -10 " transform="matrix(1,0,0,0.5,0,0)"/>
<path style="fill-rule:nonzero;fill:rgb(76.078433%,45.09804%,51.764709%);fill-opacity:1;stroke-width:1;stroke-linecap:butt;stroke-linejoin:bevel;stroke:rgb(76.078433%,45.09804%,51.764709%);stroke-opacity:1;stroke-miterlimit:4;" d="M 414 -1 L 404 0 L 432 100 Z M 414 -1 " transform="matrix(1,0,0,0.5,0,0)"/>
<path style="fill:none;stroke-width:1;stroke-linecap:butt;stroke-linejoin:bevel;stroke:rgb(56.862748%,41.568628%,50.196081%);stroke-opacity:1;stroke-miterlimit:4;" d="M 803 0 L 873 -10 L 722 -10 Z M 803 0 " transform="matrix(1,0,0,0.5,0,0)"/>
<path style="fill-rule:nonzero;fill:rgb(76.078433%,45.09804%,51.764709%);fill-opacity:1;stroke-width:1;stroke-linecap:butt;stroke-linejoin:bevel;stroke:rgb(76.078433%,45.09804%,51.764709%);stroke-opacity:1;stroke-miterlimit:4;" d="M 847 100 L 832 -2 L 803 0 Z M 847 100 " transform="matrix(1,0,0,0.5,0,0)"/>
<path style="fill-rule:nonzero;fill:rgb(69.803923%,43.921569%,52.156866%);fill-opacity:1;stroke-width:1;stroke-linecap:butt;stroke-linejoin:bevel;stroke:rgb(69.803923%,43.921569%,52.156866%);stroke-opacity:1;stroke-miterlimit:4;" d="M 847 100 L 843 0 L 832 -2 Z M 847 100 " transform="matrix(1,0,0,0.5,0,0)"/>
<path style="fill-rule:nonzero;fill:rgb(92.54902%,50.588238%,46.27451%);fill-opacity:1;stroke-width:1;stroke-linecap:butt;stroke-linejoin:bevel;stroke:rgb(92.54902%,50.588238%,46.27451%);stroke-opacity:1;stroke-miterlimit:4;" d="M 793 100 L 847 100 L 803 0 Z M 793 100 " transform="matrix(1,0,0,0.5,0,0)"/>
<path style="fill-rule:nonzero;fill:rgb(87.843138%,48.235294%,49.019608%);fill-opacity:1;stroke-width:1;stroke-linecap:butt;stroke-linejoin:bevel;stroke:rgb(87.843138%,48.235294%,49.019608%);stroke-opacity:1;stroke-miterlimit:4;" d="M 847 100 L 893 73 L 843 0 Z M 847 100 " transform="matrix(1,0,0,0.5,0,0)"/>
<path style="fill-rule:nonzero;fill:rgb(50.588238%,40.392157%,47.843137%);fill-opacity:1;stroke-width:1;stroke-linecap:butt;stroke-linejoin:bevel;stroke:rgb(50.588238%,40.392157%,47.843137%);stroke-opacity:1;stroke-miterlimit:4;" d="M 404 0 L 360 100 L 432 100 Z M 404 0 " transform="matrix(1,0,0,0.5,0,0)"/>
<path style="fill-rule:nonzero;fill:rgb(63.137257%,42.745098%,51.372552%);fill-opacity:1;stroke-width:1;stroke-linecap:butt;stroke-linejoin:bevel;stroke:rgb(63.137257%,42.745098%,51.372552%);stroke-opacity:1;stroke-miterlimit:4;" d="M 893 73 L 873 -10 L 843 0 Z M 893 73 " transform="matrix(1,0,0,0.5,0,0)"/>
<path style="fill:none;stroke-width:1;stroke-linecap:butt;stroke-linejoin:bevel;stroke:rgb(100%,56.470591%,39.607844%);stroke-opacity:1;stroke-miterlimit:4;" d="M 843 0 L 873 -10 L 832 -2 Z M 843 0 " transform="matrix(1,0,0,0.5,0,0)"/>
<path style="fill:none;stroke-width:1;stroke-linecap:butt;stroke-linejoin:bevel;stroke:rgb(69.803923%,43.921569%,52.156866%);stroke-opacity:1;stroke-miterlimit:4;" d="M 832 -2 L 873 -10 L 803 0 Z M 832 -2 " transform="matrix(1,0,0,0.5,0,0)"/>
<path style="fill-rule:nonzero;fill:rgb(45.09804%,38.82353%,44.705883%);fill-opacity:1;stroke-width:1;stroke-linecap:butt;stroke-linejoin:bevel;stroke:rgb(45.09804%,38.82353%,44.705883%);stroke-opacity:1;stroke-miterlimit:4;" d="M 324 31 L 343 100 L 360 100 Z M 324 31 " transform="matrix(1,0,0,0.5,0,0)"/>
<path style="fill-rule:nonzero;fill:rgb(81.960785%,46.666667%,50.588238%);fill-opacity:1;stroke-width:1;stroke-linecap:butt;stroke-linejoin:bevel;stroke:rgb(81.960785%,46.666667%,50.588238%);stroke-opacity:1;stroke-miterlimit:4;" d="M 857 100 L 893 73 L 847 100 Z M 857 100 " transform="matrix(1,0,0,0.5,0,0)"/>
<path style="fill-rule:nonzero;fill:rgb(92.54902%,50.588238%,46.27451%);fill-opacity:1;stroke-width:1;stroke-linecap:butt;stroke-linejoin:bevel;stroke:rgb(92.54902%,50.588238%,46.27451%);stroke-opacity:1;stroke-miterlimit:4;" d="M 324 31 L 332 100 L 343 100 Z M 324 31 " transform="matrix(1,0,0,0.5,0,0)"/>
<path style="fill-rule:nonzero;fill:rgb(45.09804%,38.82353%,44.705883%);fill-opacity:1;stroke-width:1;stroke-linecap:butt;stroke-linejoin:bevel;stroke:rgb(45.09804%,38.82353%,44.705883%);stroke-opacity:1;stroke-miterlimit:4;" d="M 404 0 L 324 31 L 360 100 Z M 404 0 " transform="matrix(1,0,0,0.5,0,0)"/>
<path style="fill-rule:nonzero;fill:rgb(76.078433%,45.09804%,51.764709%);fill-opacity:1;stroke-width:1;stroke-linecap:butt;stroke-linejoin:bevel;stroke:rgb(76.078433%,45.09804%,51.764709%);stroke-opacity:1;stroke-miterlimit:4;" d="M 893 73 L 910 0 L 873 -10 Z M 893 73 " transform="matrix(1,0,0,0.5,0,0)"/>
<path style="fill-rule:nonzero;fill:rgb(81.960785%,46.666667%,50.588238%);fill-opacity:1;stroke-width:1;stroke-linecap:butt;stroke-linejoin:bevel;stroke:rgb(81.960785%,46.666667%,50.588238%);stroke-opacity:1;stroke-miterlimit:4;" d="M 857 100 L 920 100 L 893 73 Z M 857 100 " transform="matrix(1,0,0,0.5,0,0)"/>
<path style="fill-rule:nonzero;fill:rgb(96.862745%,53.333336%,43.137255%);fill-opacity:1;stroke-width:1;stroke-linecap:butt;stroke-linejoin:bevel;stroke:rgb(96.862745%,53.333336%,43.137255%);stroke-opacity:1;stroke-miterlimit:4;" d="M 893 73 L 947 0 L 910 0 Z M 893 73 " transform="matrix(1,0,0,0.5,0,0)"/>
<path style="fill:none;stroke-width:1;stroke-linecap:butt;stroke-linejoin:bevel;stroke:rgb(69.803923%,43.921569%,52.156866%);stroke-opacity:1;stroke-miterlimit:4;" d="M 414 -1 L 298 0 L 404 0 Z M 414 -1 " transform="matrix(1,0,0,0.5,0,0)"/>
<path style="fill-rule:nonzero;fill:rgb(100%,56.470591%,39.607844%);fill-opacity:1;stroke-width:1;stroke-linecap:butt;stroke-linejoin:bevel;stroke:rgb(100%,56.470591%,39.607844%);stroke-opacity:1;stroke-miterlimit:4;" d="M 404 0 L 298 0 L 324 31 Z M 404 0 " transform="matrix(1,0,0,0.5,0,0)"/>
<path style="fill-rule:nonzero;fill:rgb(63.137257%,42.745098%,51.372552%);fill-opacity:1;stroke-width:1;stroke-linecap:butt;stroke-linejoin:bevel;stroke:rgb(63.137257%,42.745098%,51.372552%);stroke-opacity:1;stroke-miterlimit:4;" d="M 324 31 L 271 26 L 332 100 Z M 324 31 " transform="matrix(1,0,0,0.5,0,0)"/>
<path style="fill:none;stroke-width:1;stroke-linecap:butt;stroke-linejoin:bevel;stroke:rgb(56.862748%,41.568628%,50.196081%);stroke-opacity:1;stroke-miterlimit:4;" d="M 256 0 L 298 0 L 414 -1 Z M 256 0 " transform="matrix(1,0,0,0.5,0,0)"/>
<path style="fill-rule:nonzero;fill:rgb(63.137257%,42.745098%,51.372552%);fill-opacity:1;stroke-width:1;stroke-linecap:butt;stroke-linejoin:bevel;stroke:rgb(63.137257%,42.745098%,51.372552%);stroke-opacity:1;stroke-miterlimit:4;" d="M 920 100 L 947 0 L 893 73 Z M 920 100 " transform="matrix(1,0,0,0.5,0,0)"/>
<path style="fill:none;stroke-width:1;stroke-linecap:butt;stroke-linejoin:bevel;stroke:rgb(87.843138%,48.235294%,49.019608%);stroke-opacity:1;stroke-miterlimit:4;" d="M 910 0 L 947 0 L 873 -10 Z M 910 0 " transform="matrix(1,0,0,0.5,0,0)"/>
<path style="fill-rule:nonzero;fill:rgb(69.803923%,43.921569%,52.156866%);fill-opacity:1;stroke-width:1;stroke-linecap:butt;stroke-linejoin:bevel;stroke:rgb(69.803923%,43.921569%,52.156866%);stroke-opacity:1;stroke-miterlimit:4;" d="M 298 0 L 271 26 L 324 31 Z M 298 0 " transform="matrix(1,0,0,0.5,0,0)"/>
<path style="fill:none;stroke-width:1;stroke-linecap:butt;stroke-linejoin:bevel;stroke:rgb(63.137257%,42.745098%,51.372552%);stroke-opacity:1;stroke-miterlimit:4;" d="M 722 -10 L 256 0 L 414 -1 Z M 722 -10 " transform="matrix(1,0,0,0.5,0,0)"/>
<path style="fill-rule:nonzero;fill:rgb(76.078433%,45.09804%,51.764709%);fill-opacity:1;stroke-width:1;stroke-linecap:butt;stroke-linejoin:bevel;stroke:rgb(76.078433%,45.09804%,51.764709%);stroke-opacity:1;stroke-miterlimit:4;" d="M 298 0 L 256 0 L 271 26 Z M 298 0 " transform="matrix(1,0,0,0.5,0,0)"/>
<path style="fill:none;stroke-width:1;stroke-linecap:butt;stroke-linejoin:bevel;stroke:rgb(87.843138%,48.235294%,49.019608%);stroke-opacity:1;stroke-miterlimit:4;" d="M 857 100 L 976 103 L 920 100 Z M 857 100 " transform="matrix(1,0,0,0.5,0,0)"/>
<path style="fill-rule:nonzero;fill:rgb(87.843138%,48.235294%,49.019608%);fill-opacity:1;stroke-width:1;stroke-linecap:butt;stroke-linejoin:bevel;stroke:rgb(87.843138%,48.235294%,49.019608%);stroke-opacity:1;stroke-miterlimit:4;" d="M 920 100 L 976 103 L 947 0 Z M 920 100 " transform="matrix(1,0,0,0.5,0,0)"/>
<path style="fill:none;stroke-width:1;stroke-linecap:butt;stroke-linejoin:bevel;stroke:rgb(81.960785%,46.666667%,50.588238%);stroke-opacity:1;stroke-miterlimit:4;" d="M 847 100 L 976 103 L 857 100 Z M 847 100 " transform="matrix(1,0,0,0.5,0,0)"/>
<path style="fill:none;stroke-width:1;stroke-linecap:butt;stroke-linejoin:bevel;stroke:rgb(81.960785%,46.666667%,50.588238%);stroke-opacity:1;stroke-miterlimit:4;" d="M 793 100 L 976 103 L 847 100 Z M 793 100 " transform="matrix(1,0,0,0.5,0,0)"/>
<path style="fill:none;stroke-width:1;stroke-linecap:butt;stroke-linejoin:bevel;stroke:rgb(50.588238%,40.392157%,47.843137%);stroke-opacity:1;stroke-miterlimit:4;" d="M 709 100 L 976 103 L 793 100 Z M 709 100 " transform="matrix(1,0,0,0.5,0,0)"/>
<path style="fill:none;stroke-width:1;stroke-linecap:butt;stroke-linejoin:bevel;stroke:rgb(81.960785%,46.666667%,50.588238%);stroke-opacity:1;stroke-miterlimit:4;" d="M 610 100 L 976 103 L 709 100 Z M 610 100 " transform="matrix(1,0,0,0.5,0,0)"/>
<path style="fill:none;stroke-width:1;stroke-linecap:butt;stroke-linejoin:bevel;stroke:rgb(92.54902%,50.588238%,46.27451%);stroke-opacity:1;stroke-miterlimit:4;" d="M 563 100 L 976 103 L 610 100 Z M 563 100 " transform="matrix(1,0,0,0.5,0,0)"/>
<path style="fill:none;stroke-width:1;stroke-linecap:butt;stroke-linejoin:bevel;stroke:rgb(76.078433%,45.09804%,51.764709%);stroke-opacity:1;stroke-miterlimit:4;" d="M 494 100 L 976 103 L 563 100 Z M 494 100 " transform="matrix(1,0,0,0.5,0,0)"/>
<path style="fill:none;stroke-width:1;stroke-linecap:butt;stroke-linejoin:bevel;stroke:rgb(81.960785%,46.666667%,50.588238%);stroke-opacity:1;stroke-miterlimit:4;" d="M 432 100 L 976 103 L 494 100 Z M 432 100 " transform="matrix(1,0,0,0.5,0,0)"/>
<path style="fill:none;stroke-width:1;stroke-linecap:butt;stroke-linejoin:bevel;stroke:rgb(63.137257%,42.745098%,51.372552%);stroke-opacity:1;stroke-miterlimit:4;" d="M 360 100 L 976 103 L 432 100 Z M 360 100 " transform="matrix(1,0,0,0.5,0,0)"/>
<path style="fill:none;stroke-width:1;stroke-linecap:butt;stroke-linejoin:bevel;stroke:rgb(50.588238%,40.392157%,47.843137%);stroke-opacity:1;stroke-miterlimit:4;" d="M 343 100 L 976 103 L 360 100 Z M 343 100 " transform="matrix(1,0,0,0.5,0,0)"/>
<path style="fill:none;stroke-width:1;stroke-linecap:butt;stroke-linejoin:bevel;stroke:rgb(96.862745%,53.333336%,43.137255%);stroke-opacity:1;stroke-miterlimit:4;" d="M 332 100 L 976 103 L 343 100 Z M 332 100 " transform="matrix(1,0,0,0.5,0,0)"/>
<path style="fill-rule:nonzero;fill:rgb(87.843138%,48.235294%,49.019608%);fill-opacity:1;stroke-width:1;stroke-linecap:butt;stroke-linejoin:bevel;stroke:rgb(87.843138%,48.235294%,49.019608%);stroke-opacity:1;stroke-miterlimit:4;" d="M 271 26 L 242 100 L 332 100 Z M 271 26 " transform="matrix(1,0,0,0.5,0,0)"/>
<path style="fill:none;stroke-width:1;stroke-linecap:butt;stroke-linejoin:bevel;stroke:rgb(100%,56.470591%,39.607844%);stroke-opacity:1;stroke-miterlimit:4;" d="M 332 100 L 242 100 L 976 103 Z M 332 100 " transform="matrix(1,0,0,0.5,0,0)"/>
<path style="fill-rule:nonzero;fill:rgb(50.588238%,40.392157%,47.843137%);fill-opacity:1;stroke-width:1;stroke-linecap:butt;stroke-linejoin:bevel;stroke:rgb(50.588238%,40.392157%,47.843137%);stroke-opacity:1;stroke-miterlimit:4;" d="M 235 100 L 242 100 L 271 26 Z M 235 100 " transform="matrix(1,0,0,0.5,0,0)"/>
<path style="fill-rule:nonzero;fill:rgb(69.803923%,43.921569%,52.156866%);fill-opacity:1;stroke-width:1;stroke-linecap:butt;stroke-linejoin:bevel;stroke:rgb(69.803923%,43.921569%,52.156866%);stroke-opacity:1;stroke-miterlimit:4;" d="M 976 103 L 982 100 L 947 0 Z M 976 103 " transform="matrix(1,0,0,0.5,0,0)"/>
<path style="fill-rule:nonzero;fill:rgb(96.862745%,53.333336%,43.137255%);fill-opacity:1;stroke-width:1;stroke-linecap:butt;stroke-linejoin:bevel;stroke:rgb(96.862745%,53.333336%,43.137255%);stroke-opacity:1;stroke-miterlimit:4;" d="M 176 69 L 235 100 L 271 26 Z M 176 69 " transform="matrix(1,0,0,0.5,0,0)"/>
<path style="fill:none;stroke-width:1;stroke-linecap:butt;stroke-linejoin:bevel;stroke:rgb(96.862745%,53.333336%,43.137255%);stroke-opacity:1;stroke-miterlimit:4;" d="M 242 100 L 235 100 L 976 103 Z M 242 100 " transform="matrix(1,0,0,0.5,0,0)"/>
<path style="fill-rule:nonzero;fill:rgb(96.862745%,53.333336%,43.137255%);fill-opacity:1;stroke-width:1;stroke-linecap:butt;stroke-linejoin:bevel;stroke:rgb(96.862745%,53.333336%,43.137255%);stroke-opacity:1;stroke-miterlimit:4;" d="M 976 103 L 1001 97 L 982 100 Z M 976 103 " transform="matrix(1,0,0,0.5,0,0)"/>
<path style="fill-rule:nonzero;fill:rgb(96.862745%,53.333336%,43.137255%);fill-opacity:1;stroke-width:1;stroke-linecap:butt;stroke-linejoin:bevel;stroke:rgb(96.862745%,53.333336%,43.137255%);stroke-opacity:1;stroke-miterlimit:4;" d="M 982 100 L 1001 97 L 947 0 Z M 982 100 " transform="matrix(1,0,0,0.5,0,0)"/>
<path style="fill-rule:nonzero;fill:rgb(45.09804%,38.82353%,44.705883%);fill-opacity:1;stroke-width:1;stroke-linecap:butt;stroke-linejoin:bevel;stroke:rgb(45.09804%,38.82353%,44.705883%);stroke-opacity:1;stroke-miterlimit:4;" d="M 976 103 L 1024 100 L 1001 97 Z M 976 103 " transform="matrix(1,0,0,0.5,0,0)"/>
<path style="fill-rule:nonzero;fill:rgb(50.588238%,40.392157%,47.843137%);fill-opacity:1;stroke-width:1;stroke-linecap:butt;stroke-linejoin:bevel;stroke:rgb(50.588238%,40.392157%,47.843137%);stroke-opacity:1;stroke-miterlimit:4;" d="M 1001 97 L 1039 0 L 947 0 Z M 1001 97 " transform="matrix(1,0,0,0.5,0,0)"/>
<path style="fill:none;stroke-width:1;stroke-linecap:butt;stroke-linejoin:bevel;stroke:rgb(63.137257%,42.745098%,51.372552%);stroke-opacity:1;stroke-miterlimit:4;" d="M 722 -10 L 186 0 L 256 0 Z M 722 -10 " transform="matrix(1,0,0,0.5,0,0)"/>
<path style="fill-rule:nonzero;fill:rgb(63.137257%,42.745098%,51.372552%);fill-opacity:1;stroke-width:1;stroke-linecap:butt;stroke-linejoin:bevel;stroke:rgb(63.137257%,42.745098%,51.372552%);stroke-opacity:1;stroke-miterlimit:4;" d="M 256 0 L 186 0 L 271 26 Z M 256 0 " transform="matrix(1,0,0,0.5,0,0)"/>
<path style="fill-rule:nonzero;fill:rgb(69.803923%,43.921569%,52.156866%);fill-opacity:1;stroke-width:1;stroke-linecap:butt;stroke-linejoin:bevel;stroke:rgb(69.803923%,43.921569%,52.156866%);stroke-opacity:1;stroke-miterlimit:4;" d="M 1024 100 L 1039 0 L 1001 97 Z M 1024 100 " transform="matrix(1,0,0,0.5,0,0)"/>
<path style="fill:none;stroke-width:1;stroke-linecap:butt;stroke-linejoin:bevel;stroke:rgb(92.54902%,50.588238%,46.27451%);stroke-opacity:1;stroke-miterlimit:4;" d="M 947 0 L 1039 0 L 873 -10 Z M 947 0 " transform="matrix(1,0,0,0.5,0,0)"/>
<path style="fill-rule:nonzero;fill:rgb(50.588238%,40.392157%,47.843137%);fill-opacity:1;stroke-width:1;stroke-linecap:butt;stroke-linejoin:bevel;stroke:rgb(50.588238%,40.392157%,47.843137%);stroke-opacity:1;stroke-miterlimit:4;" d="M 186 0 L 176 69 L 271 26 Z M 186 0 " transform="matrix(1,0,0,0.5,0,0)"/>
<path style="fill:none;stroke-width:1;stroke-linecap:butt;stroke-linejoin:bevel;stroke:rgb(76.078433%,45.09804%,51.764709%);stroke-opacity:1;stroke-miterlimit:4;" d="M 722 -10 L 173 0 L 186 0 Z M 722 -10 " transform="matrix(1,0,0,0.5,0,0)"/>
<path style="fill-rule:nonzero;fill:rgb(87.843138%,48.235294%,49.019608%);fill-opacity:1;stroke-width:1;stroke-linecap:butt;stroke-linejoin:bevel;stroke:rgb(87.843138%,48.235294%,49.019608%);stroke-opacity:1;stroke-miterlimit:4;" d="M 186 0 L 173 0 L 176 69 Z M 186 0 " transform="matrix(1,0,0,0.5,0,0)"/>
<path style="fill-rule:nonzero;fill:rgb(69.803923%,43.921569%,52.156866%);fill-opacity:1;stroke-width:1;stroke-linecap:butt;stroke-linejoin:bevel;stroke:rgb(69.803923%,43.921569%,52.156866%);stroke-opacity:1;stroke-miterlimit:4;" d="M 173 0 L 138 46 L 176 69 Z M 173 0 " transform="matrix(1,0,0,0.5,0,0)"/>
<path style="fill-rule:nonzero;fill:rgb(100%,56.470591%,39.607844%);fill-opacity:1;stroke-width:1;stroke-linecap:butt;stroke-linejoin:bevel;stroke:rgb(100%,56.470591%,39.607844%);stroke-opacity:1;stroke-miterlimit:4;" d="M 1024 100 L 1084 0 L 1039 0 Z M 1024 100 " transform="matrix(1,0,0,0.5,0,0)"/>
<path style="fill:none;stroke-width:1;stroke-linecap:butt;stroke-linejoin:bevel;stroke:rgb(69.803923%,43.921569%,52.156866%);stroke-opacity:1;stroke-miterlimit:4;" d="M 1039 0 L 1139 -4 L 873 -10 Z M 1039 0 " transform="matrix(1,0,0,0.5,0,0)"/>
<path style="fill:none;stroke-width:1;stroke-linecap:butt;stroke-linejoin:bevel;stroke:rgb(76.078433%,45.09804%,51.764709%);stroke-opacity:1;stroke-miterlimit:4;" d="M 976 103 L 1108 100 L 1024 100 Z M 976 103 " transform="matrix(1,0,0,0.5,0,0)"/>
<path style="fill-rule:nonzero;fill:rgb(96.862745%,53.333336%,43.137255%);fill-opacity:1;stroke-width:1;stroke-linecap:butt;stroke-linejoin:bevel;stroke:rgb(96.862745%,53.333336%,43.137255%);stroke-opacity:1;stroke-miterlimit:4;" d="M 1024 100 L 1108 100 L 1084 0 Z M 1024 100 " transform="matrix(1,0,0,0.5,0,0)"/>
<path style="fill-rule:nonzero;fill:rgb(92.54902%,50.588238%,46.27451%);fill-opacity:1;stroke-width:1;stroke-linecap:butt;stroke-linejoin:bevel;stroke:rgb(92.54902%,50.588238%,46.27451%);stroke-opacity:1;stroke-miterlimit:4;" d="M 138 46 L 111 100 L 176 69 Z M 138 46 " transform="matrix(1,0,0,0.5,0,0)"/>
<path style="fill-rule:nonzero;fill:rgb(100%,56.470591%,39.607844%);fill-opacity:1;stroke-width:1;stroke-linecap:butt;stroke-linejoin:bevel;stroke:rgb(100%,56.470591%,39.607844%);stroke-opacity:1;stroke-miterlimit:4;" d="M 176 69 L 111 100 L 235 100 Z M 176 69 " transform="matrix(1,0,0,0.5,0,0)"/>
<path style="fill:none;stroke-width:1;stroke-linecap:butt;stroke-linejoin:bevel;stroke:rgb(76.078433%,45.09804%,51.764709%);stroke-opacity:1;stroke-miterlimit:4;" d="M 235 100 L 111 100 L 976 103 Z M 235 100 " transform="matrix(1,0,0,0.5,0,0)"/>
<path style="fill-rule:nonzero;fill:rgb(50.588238%,40.392157%,47.843137%);fill-opacity:1;stroke-width:1;stroke-linecap:butt;stroke-linejoin:bevel;stroke:rgb(50.588238%,40.392157%,47.843137%);stroke-opacity:1;stroke-miterlimit:4;" d="M 1108 100 L 1131 33 L 1084 0 Z M 1108 100 " transform="matrix(1,0,0,0.5,0,0)"/>
<path style="fill-rule:nonzero;fill:rgb(87.843138%,48.235294%,49.019608%);fill-opacity:1;stroke-width:1;stroke-linecap:butt;stroke-linejoin:bevel;stroke:rgb(87.843138%,48.235294%,49.019608%);stroke-opacity:1;stroke-miterlimit:4;" d="M 0 0 L 87 73 L 138 46 Z M 0 0 " transform="matrix(1,0,0,0.5,0,0)"/>
<path style="fill-rule:nonzero;fill:rgb(76.078433%,45.09804%,51.764709%);fill-opacity:1;stroke-width:1;stroke-linecap:butt;stroke-linejoin:bevel;stroke:rgb(76.078433%,45.09804%,51.764709%);stroke-opacity:1;stroke-miterlimit:4;" d="M 138 46 L 87 73 L 111 100 Z M 138 46 " transform="matrix(1,0,0,0.5,0,0)"/>
<path style="fill-rule:nonzero;fill:rgb(56.862748%,41.568628%,50.196081%);fill-opacity:1;stroke-width:1;stroke-linecap:butt;stroke-linejoin:bevel;stroke:rgb(56.862748%,41.568628%,50.196081%);stroke-opacity:1;stroke-miterlimit:4;" d="M 1131 33 L 1139 0 L 1084 0 Z M 1131 33 " transform="matrix(1,0,0,0.5,0,0)"/>
<path style="fill:none;stroke-width:1;stroke-linecap:butt;stroke-linejoin:bevel;stroke:rgb(56.862748%,41.568628%,50.196081%);stroke-opacity:1;stroke-miterlimit:4;" d="M 1084 0 L 1139 -4 L 1039 0 Z M 1084 0 " transform="matrix(1,0,0,0.5,0,0)"/>
<path style="fill:none;stroke-width:1;stroke-linecap:butt;stroke-linejoin:bevel;stroke:rgb(69.803923%,43.921569%,52.156866%);stroke-opacity:1;stroke-miterlimit:4;" d="M 1139 0 L 1139 -4 L 1084 0 Z M 1139 0 " transform="matrix(1,0,0,0.5,0,0)"/>
<path style="fill-rule:nonzero;fill:rgb(81.960785%,46.666667%,50.588238%);fill-opacity:1;stroke-width:1;stroke-linecap:butt;stroke-linejoin:bevel;stroke:rgb(81.960785%,46.666667%,50.588238%);stroke-opacity:1;stroke-miterlimit:4;" d="M 87 73 L 74 100 L 111 100 Z M 87 73 " transform="matrix(1,0,0,0.5,0,0)"/>
<path style="fill:none;stroke-width:1;stroke-linecap:butt;stroke-linejoin:bevel;stroke:rgb(100%,56.470591%,39.607844%);stroke-opacity:1;stroke-miterlimit:4;" d="M 111 100 L 74 100 L 976 103 Z M 111 100 " transform="matrix(1,0,0,0.5,0,0)"/>
<path style="fill-rule:nonzero;fill:rgb(45.09804%,38.82353%,44.705883%);fill-opacity:1;stroke-width:1;stroke-linecap:butt;stroke-linejoin:bevel;stroke:rgb(45.09804%,38.82353%,44.705883%);stroke-opacity:1;stroke-miterlimit:4;" d="M 1131 33 L 1200 36 L 1139 0 Z M 1131 33 " transform="matrix(1,0,0,0.5,0,0)"/>
<path style="fill:none;stroke-width:1;stroke-linecap:butt;stroke-linejoin:bevel;stroke:rgb(63.137257%,42.745098%,51.372552%);stroke-opacity:1;stroke-miterlimit:4;" d="M 1139 0 L 1200 0 L 1139 -4 Z M 1139 0 " transform="matrix(1,0,0,0.5,0,0)"/>
<path style="fill-rule:nonzero;fill:rgb(69.803923%,43.921569%,52.156866%);fill-opacity:1;stroke-width:1;stroke-linecap:butt;stroke-linejoin:bevel;stroke:rgb(69.803923%,43.921569%,52.156866%);stroke-opacity:1;stroke-miterlimit:4;" d="M 1200 100 L 1200 36 L 1131 33 Z M 1200 100 " transform="matrix(1,0,0,0.5,0,0)"/>
<path style="fill-rule:nonzero;fill:rgb(100%,56.470591%,39.607844%);fill-opacity:1;stroke-width:1;stroke-linecap:butt;stroke-linejoin:bevel;stroke:rgb(100%,56.470591%,39.607844%);stroke-opacity:1;stroke-miterlimit:4;" d="M 1200 36 L 1200 0 L 1139 0 Z M 1200 36 " transform="matrix(1,0,0,0.5,0,0)"/>
<path style="fill:none;stroke-width:1;stroke-linecap:butt;stroke-linejoin:bevel;stroke:rgb(45.09804%,38.82353%,44.705883%);stroke-opacity:1;stroke-miterlimit:4;" d="M 976 103 L 1200 100 L 1108 100 Z M 976 103 " transform="matrix(1,0,0,0.5,0,0)"/>
<path style="fill-rule:nonzero;fill:rgb(87.843138%,48.235294%,49.019608%);fill-opacity:1;stroke-width:1;stroke-linecap:butt;stroke-linejoin:bevel;stroke:rgb(87.843138%,48.235294%,49.019608%);stroke-opacity:1;stroke-miterlimit:4;" d="M 1108 100 L 1200 100 L 1131 33 Z M 1108 100 " transform="matrix(1,0,0,0.5,0,0)"/>
<path style="fill:none;stroke-width:1;stroke-linecap:butt;stroke-linejoin:bevel;stroke:rgb(45.09804%,38.82353%,44.705883%);stroke-opacity:1;stroke-miterlimit:4;" d="M 722 -10 L 0 0 L 173 0 Z M 722 -10 " transform="matrix(1,0,0,0.5,0,0)"/>
<path style="fill-rule:nonzero;fill:rgb(69.803923%,43.921569%,52.156866%);fill-opacity:1;stroke-width:1;stroke-linecap:butt;stroke-linejoin:bevel;stroke:rgb(69.803923%,43.921569%,52.156866%);stroke-opacity:1;stroke-miterlimit:4;" d="M 173 0 L 0 0 L 138 46 Z M 173 0 " transform="matrix(1,0,0,0.5,0,0)"/>
<path style="fill-rule:nonzero;fill:rgb(81.960785%,46.666667%,50.588238%);fill-opacity:1;stroke-width:1;stroke-linecap:butt;stroke-linejoin:bevel;stroke:rgb(81.960785%,46.666667%,50.588238%);stroke-opacity:1;stroke-miterlimit:4;" d="M 87 73 L 0 96 L 74 100 Z M 87 73 " transform="matrix(1,0,0,0.5,0,0)"/>
<path style="fill-rule:nonzero;fill:rgb(45.09804%,38.82353%,44.705883%);fill-opacity:1;stroke-width:1;stroke-linecap:butt;stroke-linejoin:bevel;stroke:rgb(45.09804%,38.82353%,44.705883%);stroke-opacity:1;stroke-miterlimit:4;" d="M 0 0 L 0 96 L 87 73 Z M 0 0 " transform="matrix(1,0,0,0.5,0,0)"/>
<path style="fill-rule:nonzero;fill:rgb(69.803923%,43.921569%,52.156866%);fill-opacity:1;stroke-width:1;stroke-linecap:butt;stroke-linejoin:bevel;stroke:rgb(69.803923%,43.921569%,52.156866%);stroke-opacity:1;stroke-miterlimit:4;" d="M 0 96 L 0 100 L 74 100 Z M 0 96 " transform="matrix(1,0,0,0.5,0,0)"/>
<path style="fill:none;stroke-width:1;stroke-linecap:butt;stroke-linejoin:bevel;stroke:rgb(92.54902%,50.588238%,46.27451%);stroke-opacity:1;stroke-miterlimit:4;" d="M 74 100 L 0 100 L 976 103 Z M 74 100 " transform="matrix(1,0,0,0.5,0,0)"/>
<path style="fill:none;stroke-width:1;stroke-linecap:butt;stroke-linejoin:bevel;stroke:rgb(76.078433%,45.09804%,51.764709%);stroke-opacity:1;stroke-miterlimit:4;" d="M 722 -10 L -4 0 L 0 0 Z M 722 -10 " transform="matrix(1,0,0,0.5,0,0)"/>
<path style="fill:none;stroke-width:1;stroke-linecap:butt;stroke-linejoin:bevel;stroke:rgb(81.960785%,46.666667%,50.588238%);stroke-opacity:1;stroke-miterlimit:4;" d="M 0 0 L -4 0 L 0 96 Z M 0 0 " transform="matrix(1,0,0,0.5,0,0)"/>
<path style="fill:none;stroke-width:1;stroke-linecap:butt;stroke-linejoin:bevel;stroke:rgb(56.862748%,41.568628%,50.196081%);stroke-opacity:1;stroke-miterlimit:4;" d="M 0 96 L -4 0 L 0 100 Z M 0 96 " transform="matrix(1,0,0,0.5,0,0)"/>
</g>
</svg>
