<svg id="visual" viewBox="0 0 1200 200" width="1200" height="200" xmlns="http://www.w3.org/2000/svg" xmlns:xlink="http://www.w3.org/1999/xlink" version="1.1"><path d="M0 155L13.3 152.2C26.7 149.3 53.3 143.7 80 142C106.7 140.3 133.3 142.7 160 144.5C186.7 146.3 213.3 147.7 240 148.2C266.7 148.7 293.3 148.3 320 150C346.7 151.7 373.3 155.3 400 157.3C426.7 159.3 453.3 159.7 480 155.7C506.7 151.7 533.3 143.3 560 143C586.7 142.7 613.3 150.3 640 154.7C666.7 159 693.3 160 720 160.3C746.7 160.7 773.3 160.3 800 159.7C826.7 159 853.3 158 880 157.2C906.7 156.3 933.3 155.7 960 152.5C986.7 149.3 1013.3 143.7 1040 142C1066.7 140.3 1093.3 142.7 1120 143.8C1146.7 145 1173.3 145 1186.7 145L1200 145L1200 201L1186.7 201C1173.3 201 1146.7 201 1120 201C1093.3 201 1066.7 201 1040 201C1013.3 201 986.7 201 960 201C933.3 201 906.7 201 880 201C853.3 201 826.7 201 800 201C773.3 201 746.7 201 720 201C693.3 201 666.7 201 640 201C613.3 201 586.7 201 560 201C533.3 201 506.7 201 480 201C453.3 201 426.7 201 400 201C373.3 201 346.7 201 320 201C293.3 201 266.7 201 240 201C213.3 201 186.7 201 160 201C133.3 201 106.7 201 80 201C53.3 201 26.7 201 13.3 201L0 201Z" fill="#d9ffa5"></path><path d="M0 163L13.3 163.7C26.7 164.3 53.3 165.7 80 166C106.7 166.3 133.3 165.7 160 164.3C186.7 163 213.3 161 240 161.3C266.7 161.7 293.3 164.3 320 164C346.7 163.7 373.3 160.3 400 160.7C426.7 161 453.3 165 480 167C506.7 169 533.3 169 560 167.7C586.7 166.3 613.3 163.7 640 160.7C666.7 157.7 693.3 154.3 720 155C746.7 155.7 773.3 160.3 800 163.2C826.7 166 853.3 167 880 166.8C906.7 166.7 933.3 165.3 960 162.7C986.7 160 1013.3 156 1040 154.3C1066.7 152.7 1093.3 153.3 1120 154.5C1146.7 155.7 1173.3 157.3 1186.7 158.2L1200 159L1200 201L1186.7 201C1173.3 201 1146.7 201 1120 201C1093.3 201 1066.7 201 1040 201C1013.3 201 986.7 201 960 201C933.3 201 906.7 201 880 201C853.3 201 826.7 201 800 201C773.3 201 746.7 201 720 201C693.3 201 666.7 201 640 201C613.3 201 586.7 201 560 201C533.3 201 506.7 201 480 201C453.3 201 426.7 201 400 201C373.3 201 346.7 201 320 201C293.3 201 266.7 201 240 201C213.3 201 186.7 201 160 201C133.3 201 106.7 201 80 201C53.3 201 26.7 201 13.3 201L0 201Z" fill="#79f0c4"></path><path d="M0 163L13.3 164.3C26.7 165.7 53.3 168.3 80 168C106.7 167.7 133.3 164.3 160 162.8C186.7 161.3 213.3 161.7 240 161.2C266.7 160.7 293.3 159.3 320 160.8C346.7 162.3 373.3 166.7 400 168.8C426.7 171 453.3 171 480 171.2C506.7 171.3 533.3 171.7 560 170.2C586.7 168.7 613.3 165.3 640 163.8C666.7 162.3 693.3 162.7 720 161.8C746.7 161 773.3 159 800 160.7C826.7 162.3 853.3 167.7 880 169.8C906.7 172 933.3 171 960 170.2C986.7 169.3 1013.3 168.7 1040 168.2C1066.7 167.7 1093.3 167.3 1120 165.8C1146.7 164.3 1173.3 161.7 1186.7 160.3L1200 159L1200 201L1186.7 201C1173.3 201 1146.7 201 1120 201C1093.3 201 1066.7 201 1040 201C1013.3 201 986.7 201 960 201C933.3 201 906.7 201 880 201C853.3 201 826.7 201 800 201C773.3 201 746.7 201 720 201C693.3 201 666.7 201 640 201C613.3 201 586.7 201 560 201C533.3 201 506.7 201 480 201C453.3 201 426.7 201 400 201C373.3 201 346.7 201 320 201C293.3 201 266.7 201 240 201C213.3 201 186.7 201 160 201C133.3 201 106.7 201 80 201C53.3 201 26.7 201 13.3 201L0 201Z" fill="#00d7e5"></path><path d="M0 175L13.3 175.5C26.7 176 53.3 177 80 176.3C106.7 175.7 133.3 173.3 160 173.8C186.7 174.3 213.3 177.7 240 179.2C266.7 180.7 293.3 180.3 320 178.7C346.7 177 373.3 174 400 173.3C426.7 172.7 453.3 174.3 480 173.7C506.7 173 533.3 170 560 170.7C586.7 171.3 613.3 175.7 640 176C666.7 176.3 693.3 172.7 720 171.8C746.7 171 773.3 173 800 173.7C826.7 174.3 853.3 173.7 880 172.5C906.7 171.3 933.3 169.7 960 169.8C986.7 170 1013.3 172 1040 173.5C1066.7 175 1093.3 176 1120 175.2C1146.7 174.3 1173.3 171.7 1186.7 170.3L1200 169L1200 201L1186.7 201C1173.3 201 1146.7 201 1120 201C1093.3 201 1066.7 201 1040 201C1013.3 201 986.7 201 960 201C933.3 201 906.7 201 880 201C853.3 201 826.7 201 800 201C773.3 201 746.7 201 720 201C693.3 201 666.7 201 640 201C613.3 201 586.7 201 560 201C533.3 201 506.7 201 480 201C453.3 201 426.7 201 400 201C373.3 201 346.7 201 320 201C293.3 201 266.7 201 240 201C213.3 201 186.7 201 160 201C133.3 201 106.7 201 80 201C53.3 201 26.7 201 13.3 201L0 201Z" fill="#00b6ff"></path><path d="M0 187L13.3 185.7C26.7 184.3 53.3 181.7 80 181.5C106.7 181.3 133.3 183.7 160 184C186.7 184.3 213.3 182.7 240 181.5C266.7 180.3 293.3 179.7 320 180.3C346.7 181 373.3 183 400 183.7C426.7 184.3 453.3 183.7 480 183.7C506.7 183.7 533.3 184.3 560 184.7C586.7 185 613.3 185 640 185C666.7 185 693.3 185 720 184.7C746.7 184.3 773.3 183.7 800 183.2C826.7 182.7 853.3 182.3 880 182.2C906.7 182 933.3 182 960 182.2C986.7 182.3 1013.3 182.7 1040 183.3C1066.7 184 1093.3 185 1120 185.5C1146.7 186 1173.3 186 1186.7 186L1200 186L1200 201L1186.7 201C1173.3 201 1146.7 201 1120 201C1093.3 201 1066.7 201 1040 201C1013.3 201 986.7 201 960 201C933.3 201 906.7 201 880 201C853.3 201 826.7 201 800 201C773.3 201 746.7 201 720 201C693.3 201 666.7 201 640 201C613.3 201 586.7 201 560 201C533.3 201 506.7 201 480 201C453.3 201 426.7 201 400 201C373.3 201 346.7 201 320 201C293.3 201 266.7 201 240 201C213.3 201 186.7 201 160 201C133.3 201 106.7 201 80 201C53.3 201 26.7 201 13.3 201L0 201Z" fill="#1888ff"></path></svg>